{
	"buffers":[{
		"uri":"data:application/octet-stream;base64,",
		"byteLength":38976
	}],
	"asset":{
		"version":"2.0",
		"generator":"Created using the official Cinema 4D glTF Exporter 1.000x284978"
	},
	"scenes":[{
		"nodes":[0]
	}],
	"nodes":[{
		"name":"D",
		"mesh":0
	}],
	"meshes":[{
		"name":"D",
		"primitives":[{
			"attributes":{
				"POSITION":1,
				"NORMAL":2,
				"TEXCOORD_0":3
			},
			"indices":0
		}]
	}],
	"accessors":[{
		"bufferView":0,
		"type":"SCALAR",
		"componentType":5123,
		"count":3744,
		"byteOffset":0,
		"min":[0],
		"max":[983]
	},
	{
		"bufferView":1,
		"type":"VEC3",
		"componentType":5126,
		"count":984,
		"byteOffset":0,
		"min":[16.600000381469728,
		0.0,
		-41.0],
		"max":[157.39999389648438,
		140.0,
		1.0]
	},
	{
		"bufferView":1,
		"type":"VEC3",
		"componentType":5126,
		"count":984,
		"byteOffset":12,
		"min":[-1.0,
		-1.0,
		-1.0],
		"max":[1.0,
		1.0,
		1.0]
	},
	{
		"bufferView":1,
		"type":"VEC2",
		"componentType":5126,
		"count":984,
		"byteOffset":24,
		"min":[0.0,
		0.0],
		"max":[1.0,
		1.0]
	}],
	"bufferViews":[{
		"buffer":0,
		"byteOffset":0,
		"byteLength":7488,
		"target":34963
	},
	{
		"buffer":0,
		"byteOffset":7488,
		"byteLength":31488,
		"target":34962,
		"byteStride":32
	}]
}