<svg width="30" height="28" viewBox="0 0 30 28" fill="none" xmlns="http://www.w3.org/2000/svg">
<path d="M0.986504 28V-1.90735e-06H13.7065C16.7465 -1.90735e-06 19.4265 0.586665 21.7465 1.76C24.0665 2.90667 25.8798 4.52 27.1865 6.6C28.4932 8.68 29.1465 11.1467 29.1465 14C29.1465 16.8267 28.4932 19.2933 27.1865 21.4C25.8798 23.48 24.0665 25.1067 21.7465 26.28C19.4265 27.4267 16.7465 28 13.7065 28H0.986504ZM7.4665 22.68H13.3865C15.2532 22.68 16.8665 22.3333 18.2265 21.64C19.6132 20.92 20.6798 19.9067 21.4265 18.6C22.1998 17.2933 22.5865 15.76 22.5865 14C22.5865 12.2133 22.1998 10.68 21.4265 9.4C20.6798 8.09333 19.6132 7.09333 18.2265 6.4C16.8665 5.68 15.2532 5.32 13.3865 5.32H7.4665V22.68Z" fill="#141414"/>
</svg>
